<?xml version="1.0" encoding="UTF-8"?>
<svg version="1.1" viewBox="0 0 2000 2000" width="1280" height="1280"
    xmlns="http://www.w3.org/2000/svg">
    <path transform="translate(564,60)"
        d="m0 0h27l20 4 16 6 13 7 11 8 10 9 10 10 11 16 8 15 7 19 3 13 10-5 22-12 36-15 25-9 34-11 31-8 28-6 49-8 34-4 43-3h48l28 2 34 4 34 6 44 11 25 8 26 11 22 11 17 11 10 7 4-14 9-19 10-15 7-9 8-7 9-8 14-9 19-9 13-4 18-3h25l19 3 17 5 19 9 12 8 14 11 14 14 10 14 9 16 8 21 4 17 2 17v17l-2 20-4 17-6 16-9 17-11 13-10 10-15 9-15 7-18 4-10 1h-12l-15-2-17-4-6-2 2 6 18 40 13 29 18 45 7 21 4 20 2 19 1 16v36l-1 20-4 32-5 22-7 20-13 27-15 24-12 17-14 17-10 11-7 8-14 15-10 9-12 12-8 7-10 9-14 11-16 13-17 12-19 13-26 17-17 10-29 16-16 8-25 12-25 11-27 11-28 9-57 18-55 18-45 15-52 19-24 10-36 16-30 14-28 14-22 12-26 15-22 14-22 15-20 14-13 10-17 13-13 11-10 8-15 14-12 11-18 18-2 3h-2l-2 4-9 9-9 11-9 10-22 28-3 2-14-10-17-12-21-16-16-12-11-9-26-22-11-9-15-14-8-7-16-15-16-16-9-11-10-12-16-24-12-19-9-16-10-23-8-24-5-21-3-17-2-19v-40l3-26 5-28 9-33 6-16h3l5 25 8 31 12 36 10 24 10 19 9 16 14 22 11 16 14 19 9 11 13 15 11 12 7 8 28 28 11 9 14 12 11 9 18 13 21 14 17 10 16 8 21 10h3l24-24-3-3-29-16-28-17-11-7-19-14-13-10-15-12-11-9-14-13-8-7-14-14-7-8-9-10-11-14-15-20-13-20-11-19-12-23-9-19-11-31-8-30-5-27-3-23-1-12-1-41 3-32 5-26 7-23 9-21 10-22 13-23 14-23 22-33 12-17 21-28 11-13 8-10 11-13 12-14 11-12 7-8 11-12 7-8 28-28 3-4h2l-1 4-9 12-10 13-11 16-10 15-13 20-15 26-12 25-10 25-5 17-3 20v24l3 15 6 18 9 19 13 20 11 15 13 16 11 13 12 13 9 10 28 28 8 7 12 11 11 9 15 13 12 9 18 13 19 14 18 13 19 12 22 14 32 19 17 10 18 10 28 15 22 11 46 22 26 11 11 5h8l21-8 17-5 1-2-29-6-21-6-20-8-25-12-21-11-21-12-19-12-18-12-19-14-18-13-15-11-14-11-11-9-13-11-12-11-8-7-49-49-11-14-11-13-12-16-12-18-11-19-8-17-6-16-6-23-4-25-2-23v-44l3-31 5-25 8-24 16-39 12-27 13-29 10-22-17 4-16 3h-19l-20-3-15-5-12-6-12-9-11-11-12-18-8-17-5-16-3-15-1-8v-18l4-27 6-20 8-18 10-16 12-14 9-9 16-12 17-10 19-8 15-4zm874 116-14 3-16 8-9 7-8 8-8 14-4 10-2 12v8l4 16 7 11 9 8 13 6 7 2 10 1 20-3 13-4 11-6 9-7 8-8 9-14 3-9 1-5v-14l-4-13-7-12-8-8-10-6-11-4-4-1zm-892 1-14 3-10 5-12 11-6 9-4 12-1 6v9l3 13 7 14 9 11 10 8 16 8 16 4h12l12-2 13-5 9-6 5-5 7-9 4-11 1-6v-14l-4-14-5-9-8-10-10-9-14-8-17-5zm442 271-20 4-18 6-23 12-19 14-13 12-12 11-13 15-13 16-14 21-9 15-9 16-11 25-9 25-7 27-4 23-2 23v28l3 24 6 26 7 19 8 17 8 12 11 14 10 11 11 9 15 11 13 8 15 8 29 11 33 8 16 2h43l32-5 19-5 26-10 21-11 12-8 16-13 10-9 9-10 11-15 10-18 8-19 6-22 4-24 1-10v-33l-3-25-5-25-7-25-8-22-12-26-13-23-14-21-11-14-9-11-16-17-9-9-17-13-15-10-16-9-20-7-13-3-8-1zm-222 12-4 4-2 5v8l4 11 5 7 7 5 6 2 10 1 10-2 8-4 7-7 4-8 1-4v-10l-4-7h-8l-15 2-16-1-9-2zm418 0-4 6-1 3v8l4 10 6 8 8 5 9 2h9l10-3 8-6 6-10 2-7-1-10-3-5-13 1-17 1-14-2z"
        fill="#C97B61" />
    <path transform="translate(1480,372)"
        d="m0 0 4 2 11 11 7 8 28 28 7 8 13 14 9 11 9 9 7 8 13 16 13 17 12 16 11 16 20 30 21 35 7 12 13 28 9 23 7 24 4 22 2 17 1 15-1 39-5 42-5 26-8 29-12 34-14 29-11 19-13 20-14 20-9 12-15 16-9 11-15 16-14 13-8 7-14 12-10 8-19 13-16 12-15 9-25 14-18 10-19 8-30 9-75 20-53 16-36 12-40 14-37 17-29 14-31 16-16 9-22 14-29 19-9 7-14 11-14 12-11 9-4 2-2 4-39 39-15 20-16 21-7 10-10 17-13 22-3 1-80-40-19-10-50-25-22-12-23-12-22-12-32-17-75-44-17-10-4-3 2-4 9-10 1-2h2l2-4 11-13 9-11 42-42 14-11 11-10 16-12 10-8 19-13 23-16 14-9 26-15 28-16 27-14 44-22 19-10 29-12 54-22 26-10 47-17 47-16 37-12 36-12 58-19 43-14 32-10 43-15 31-11 56-24 35-17 23-11 47-29 14-10 14-11 12-11 7-8 9-10 11-15 9-15 8-17 7-22 2-15v-30l-3-34-7-36-7-25-11-32-10-25-17-36-11-22-13-23-14-25-13-22z"
        fill="#C97B61" />
    <path transform="translate(1747,818)"
        d="m0 0h2l4 11 7 23 6 27 4 26 1 10 1 27-1 24-3 22-4 20-7 24-8 21-12 25-10 17-8 12-10 14-13 17-14 17-28 28-8 7-12 11-8 7-28 24-10 8-17 14-34 26-14 10-23 16-3 2-5-1-23-16-17-12-20-14-24-16-14-10-5-3h-7l-50 15 4 4 31 21 22 15 18 13 19 13 16 12 19 14 21 16 12 9 14 11 16 13 14 11 17 14 11 10 8 7 12 11 16 15 27 27 7 8 16 17 15 16 11 12 18 22 14 21 10 18 7 15 2 12-4-1-8-7-17-13-19-12-26-15-20-12-19-12-23-14-26-14-19-10-17-8-5 1-5 2 3 5 10 10 10 13 10 14 12 17 9 13 10 15 8 13 9 16 8 16 10 24 8 26 5 25 3 24 1 12v11l-4-1-7-9-12-20-20-30-16-21-33-42-13-16-9-11-20-20-18-13-17-12-24-16-14-8-8-1-8 7 2 4 26 26 7 8 9 10 11 14 13 18 12 18 14 24 10 19 8 20 5 17 3 19 1 11v25l-2 19-3 17-7 25-4 11h-2l-3-21-5-23-8-22-11-23-14-22-11-15-12-16-9-11-12-14-11-12-10-11-8-7-7-7-30-23-17-12-16-10-4 2-5 6 1 5 11 13 13 16 13 17 13 18 11 17 12 21 10 21 8 22 5 21 2 14v40l-3 24-4 18-5 16-8 18-4 6-3 1-3-5-7-33-7-24-10-24-8-16-9-17-16-24-14-19-10-13-14-17-9-11-9-9-7-8-16-15-11-11-4-1-5 5 1 7 12 22 10 22 7 21 4 18 2 18 1 19v42l-2 23-3 18-5 20-6 18-3 7-4-1-6-25-15-71-5-18-8-20-12-25-8-14-4-4-5 8-1 8 6 35 2 17v38l-3 19-6 21-7 16-7 11h-4l-3-21-6-48-7-37-11-44-11-33-13-30-14-27-12-20-12-17-9-12-11-14-10-11-7-8-18-18-11-9-15-12-19-14-16-11-19-12-27-15-5-4 3-10 7-16 10-19 8-11 7-9 9-10 6-7h2l2-4 8-7 8-8 11-9 14-12 13-10 15-12 13-9 33-22 28-17 19-11 39-20 34-16 37-15 26-10 38-12 24-7 30-9 39-12 38-14 30-14 16-8 24-14 11-7 22-15 10-8 14-11 11-10 11-9 8-8 8-7 10-10 7-8 12-13 8-10 10-12 24-32 11-16 11-17 12-20 8-14 11-26 10-30 8-31 6-30z"
        fill="#C97B61" />
    <path transform="translate(995,597)"
        d="m0 0h10l21 2 16 4 15 5 15 8 12 8 12 11 8 8 8 13 5 11 3 11 1 7v11l-3 15-8 17-8 12-9 9-10 8-17 9-24 8-15 3-10 1v39l16 5 16 4 25 3h9l17-2 23-7 25-11 15-10 13-9 5 1 1 5-9 17-10 13-9 11-10 8-13 8-13 6-18 5-17 2h-11l-18-2-16-3-38-11-7 1-36 10-35 5h-9l-27-4-13-5-12-7-11-8-15-15-12-19-6-11v-5l2-2 5 1 13 9 10 7 19 10 14 5 14 4 19 2h23l24-5 19-6 1-2 1-38-23-3-18-6-17-9-14-10-10-9-7-8-7-12-5-13-2-12v-13l4-16 8-16 11-14 4-5 14-11 17-10 9-4 22-6zm-1 22-22 3-19 5-13 5-16 8-17 14-3 2v2l9-1 34-5 39-2h31l35 2 41 6 4-1-8-7-15-11-21-10-24-7-22-3zm52 77-11 4-6 5-4 5-1 3v9l5 10 4 3 10-2 13-5 10-6 3-3 1-3v-7l-4-6-6-5-8-2zm-104 1-7 3-6 7v9l6 7 17 8 9 4h6l7-8 2-6-1-8-4-7-8-7-9-2z"
        fill="#C97B61" />
</svg>